HIERARCHY
ROOT Hips
{
	OFFSET 0.00000 0.00000 0.00000
	CHANNELS 6 Xposition Yposition Zposition Yrotation Zrotation Xrotation 
	JOINT Lumbar
	{
		OFFSET 0 0 0
		CHANNELS 3 Zrotation Xrotation Yrotation
		JOINT Neck
		{
			OFFSET 0.00 0.2701 0.00
			CHANNELS 3 Zrotation Xrotation Yrotation
			End Site
			{
				OFFSET 0.00 0.1379 0.00
			}
		}
		JOINT RightShoulder
		{
			OFFSET 0.0119 0.2289 0.1181
			CHANNELS 3 Zrotation Xrotation Yrotation
			JOINT RightElbow
			{
				OFFSET 0.00 -0.1475 0.00
				CHANNELS 2 Zrotation Yrotation
				JOINT RightWrist
				{
					OFFSET 0.00 -0.1605 0.00
					CHANNELS 2 Zrotation Xrotation
					End Site
					{
						OFFSET 0.0040 -0.1068 0.0006
					}
				}
			}
		}
		JOINT LeftShoulder
		{
			OFFSET 0.0119 0.2289 -0.1181
			CHANNELS 3 Zrotation Xrotation Yrotation
			JOINT LeftElbow
			{
				OFFSET 0.00 -0.1475 0.00
				CHANNELS 2 Zrotation Yrotation
				JOINT LeftWrist
				{
					OFFSET 0.00 -0.1605 0.00
					CHANNELS 2 Zrotation Xrotation
					End Site
					{
						OFFSET 0.0040 -0.1068 -0.0006
					}
				}
			}
		}
	}
	JOINT RightHip
	{
		OFFSET 0.0316 -0.0424 0.0458
		CHANNELS 3 Zrotation Xrotation Yrotation
		JOINT RightKnee
		{
			OFFSET 0.00 -0.2438 0.00
			CHANNELS 1 Zrotation
			JOINT RightAnkle
			{
				OFFSET 0.00 -0.2449 0.00
				CHANNELS 3 Zrotation Xrotation Yrotation
				End Site
				{
					OFFSET 0.1237 -0.0542 0.0051
				}
			}
		}
	}
	JOINT LeftHip
	{
		OFFSET 0.0316 -0.0424 -0.0458
		CHANNELS 3 Zrotation Xrotation Yrotation
		JOINT LeftKnee
		{
			OFFSET 0.00 -0.2438 0.00
			CHANNELS 1 Zrotation
			JOINT LeftAnkle
			{
				OFFSET 0.00 -0.2449 0.00
				CHANNELS 3 Zrotation Xrotation Yrotation
				End Site
				{
					OFFSET 0.1237 -0.0542 -0.0051
				}
			}
		}
	}
}
MOTION
Frames: 30
Frame Time: 0.02
-0.0006 -0.0001 0.00099 -177.91337 -31.98624 -1.30624 44.16887 2.65729 -6.98669 -10.6699 -1.69341 -0.43631 -21.89604 -16.65046 11.12166 41.73392 65.46241 -1.65384 -3.3565 -29.27633 13.27273 -5.1071 38.07385 -162.68753 27.96269 -10.86678 34.88812 1.05177 -14.40537 -21.05921 -7.55987 -4.25209 -2.97887 35.90217 6.43588 0.14579 -27.02391 -10.34108 5.66076 3.8785
-0.00071 -0.00012 0.00064 -177.6096 -31.73097 -1.29022 43.98099 2.59747 -6.84016 -10.77586 -1.688 -0.43668 -22.34511 -16.4249 10.35661 41.50554 70.77932 -0.23102 -2.5131 -29.47259 13.5861 -5.3506 38.28628 -156.41921 26.29217 -9.88369 34.56494 1.15783 -14.15233 -20.99267 -7.60893 -4.30946 -3.01106 35.63503 6.62802 0.70813 -26.96995 -10.25109 5.59591 3.83641
-0.00081 -0.00014 0.00028 -177.3064 -31.47664 -1.27423 43.7939 2.53774 -6.69394 -10.88155 -1.68267 -0.43705 -22.79306 -16.20031 9.59458 41.27786 76.07336 1.1857 -1.67333 -29.66816 13.89869 -5.59327 38.49844 -150.17003 24.62679 -8.90362 34.24295 1.26363 -13.90018 -20.9264 -7.65785 -4.36669 -3.04316 35.369 6.81952 1.26806 -26.91623 -10.16141 5.53128 3.79446
-0.00091 -0.00015 -7e-05 -177.00352 -31.2222 -1.25826 43.60666 2.47809 -6.54784 -10.98719 -1.6773 -0.43742 -23.24083 -15.97549 8.832 41.0502 81.37262 2.60379 -0.83273 -29.86381 14.21112 -5.83602 38.71027 -143.92099 22.96142 -7.92355 33.92082 1.36938 -13.64793 -20.86008 -7.70675 -4.42389 -3.07525 35.10275 7.01105 1.82852 -26.86246 -10.07171 5.46663 3.75251
-0.00102 -0.00017 -0.00043 -176.70019 -30.96671 -1.24228 43.41851 2.41835 -6.40148 -11.09307 -1.6718 -0.43779 -23.68954 -15.74958 8.06614 40.82182 86.69779 4.02879 0.012 -30.06017 14.52426 -6.07963 38.92225 -137.65289 21.29091 -6.94048 33.59736 1.47535 -13.39478 -20.79345 -7.75579 -4.48122 -3.10742 34.83523 7.20326 2.39178 -26.80842 -9.98168 5.40176 3.7104
-0.00112 -0.00019 -0.00078 -176.39725 -30.7148 -1.22626 43.23361 2.35866 -6.25557 -11.19835 -1.66682 -0.43816 -24.13582 -15.52776 7.31218 40.59557 91.92649 5.42814 0.84135 -30.25406 14.8357 -6.32029 39.13481 -131.44385 19.63641 -5.96677 33.27844 1.5808 -13.14477 -20.72793 -7.80447 -4.53823 -3.13938 34.57234 7.3933 2.94471 -26.75536 -9.89274 5.33762 3.66878
-0.00122 -0.00021 -0.00113 -176.09393 -30.45611 -1.21034 43.04255 2.29897 -6.10892 -11.30472 -1.66085 -0.43853 -24.58672 -15.29802 6.53524 40.3654 97.34153 6.877 1.70042 -30.4527 15.15018 -6.56665 39.34586 -125.12313 17.9516 -4.97535 32.95093 1.68718 -12.88863 -20.6603 -7.85381 -4.59582 -3.17173 34.30057 7.58738 3.51747 -26.70044 -9.80173 5.27211 3.62624
-0.00133 -0.00023 -0.00149 -175.79085 -30.20339 -1.19433 42.85685 2.23922 -5.96294 -11.41011 -1.65571 -0.4389 -25.03293 -15.07546 5.77922 40.13862 102.58838 8.28122 2.53265 -30.64697 15.46192 -6.80771 39.5585 -118.90482 16.29459 -4.00014 32.63101 1.79273 -12.63832 -20.59454 -7.90254 -4.65287 -3.20371 34.03668 7.77794 4.07258 -26.64715 -9.71257 5.2078 3.58451
-0.00143 -0.00025 -0.00185 -175.48833 -29.95902 -1.17821 42.67891 2.17957 -5.81775 -11.51423 -1.65192 -0.43927 -25.47537 -14.86212 5.04964 39.91681 107.61624 9.62713 3.32998 -30.83596 15.77021 -7.04254 39.77247 -112.81134 14.67147 -3.04481 32.32159 1.89721 -12.39436 -20.53136 -7.95054 -4.70932 -3.23527 33.78361 7.96347 4.60373 -26.59616 -9.62589 5.14516 3.54391
-0.00154 -0.00026 -0.00218 -175.18336 -29.66979 -1.16271 42.45998 2.11986 -5.66791 -11.62548 -1.64138 -0.43963 -25.94543 -14.59707 4.17052 39.66889 113.86381 11.29727 4.32181 -31.05551 16.09804 -7.31395 39.97696 -105.99837 12.85304 -1.97527 31.95541 2.00766 -12.11153 -20.45418 -8.00281 -4.7694 -3.26935 33.47186 8.17577 5.26554 -26.53285 -9.5256 5.07356 3.49723
-0.00163 -0.00029 -0.00258 -174.88313 -29.47317 -1.14589 42.32517 2.06 -5.52798 -11.72177 -1.64442 -0.44004 -26.35333 -14.44028 3.60524 39.47448 117.56407 12.29064 4.90736 -31.21043 16.38483 -7.5077 40.20253 -100.70471 11.447 -1.14668 31.70665 2.10562 -11.91218 -20.40599 -8.04602 -4.82171 -3.29808 33.28163 8.33294 5.65632 -26.49496 -9.45359 5.02044 3.46312
-0.00166 -0.00034 -0.00311 -174.59938 -29.5504 -1.12543 42.44311 2.00198 -5.41405 -11.77585 -1.69031 -0.44035 -26.61955 -14.59022 3.92347 39.44074 113.98763 11.34738 4.3331 -31.1874 16.55666 -7.49043 40.4777 -99.60947 11.181 -0.9857 31.80307 2.16794 -11.93234 -20.44291 -8.06449 -4.85351 -3.31235 33.44758 8.32599 5.2567 -26.53245 -9.46364 5.02204 3.46602
-0.00166 -0.00041 -0.00372 -174.31979 -29.71728 -1.10361 42.64157 1.94346 -5.30989 -11.81509 -1.74862 -0.44077 -26.81698 -14.84696 4.55269 39.45785 107.90474 9.73866 3.35899 -31.09934 16.68778 -7.39492 40.77541 -100.03478 11.32769 -1.06555 32.01361 2.2179 -12.03826 -20.50798 -8.07383 -4.87733 -3.32122 33.73185 8.2658 4.59268 -26.59449 -9.50141 5.04155 3.48113
-0.00167 -0.00047 -0.00431 -174.03598 -29.82986 -1.08248 42.7887 1.88366 -5.20256 -11.86195 -1.79782 -0.44131 -27.02831 -15.04871 5.02504 39.44305 103.15815 8.48714 2.59746 -31.0417 16.83897 -7.33365 41.06839 -99.74455 11.27984 -1.03086 32.15632 2.27449 -12.11101 -20.55644 -8.08729 -4.9043 -3.33245 33.9465 8.2387 4.08128 -26.64157 -9.52341 5.05014 3.48894
-0.00171 -0.00054 -0.00483 -173.76186 -29.99857 -1.0612 42.9977 1.83001 -5.09157 -11.90525 -1.86239 -0.44113 -27.317 -15.27849 5.56367 39.46677 97.58081 7.00555 1.70566 -30.98121 16.98315 -7.2772 41.33878 -99.55917 11.26167 -1.01776 32.36475 2.32706 -12.15878 -20.62079 -8.10091 -4.93337 -3.34413 34.22623 8.17507 3.436 -26.70455 -9.55826 5.07014 3.50395
-0.00167 -0.00059 -0.0055 -173.46875 -30.07325 -1.03972 43.09758 1.76367 -4.98842 -11.95224 -1.897 -0.44245 -27.42298 -15.47449 6.03793 39.42074 93.13098 5.84227 0.98937 -30.91006 17.13264 -7.19289 41.66077 -99.51799 11.28031 -1.01726 32.46575 2.38471 -12.27974 -20.65905 -8.11194 -4.95607 -3.35352 34.40103 8.17351 3.00225 -26.7405 -9.57364 5.07107 3.50713
-0.00144 -0.00064 -0.00656 -173.11983 -29.85211 -1.01952 42.8699 1.66069 -4.92216 -12.01446 -1.85333 -0.44807 -27.08632 -15.55665 6.25752 39.18359 92.49309 5.75059 0.8662 -30.83537 17.30372 -7.04493 42.12648 -99.47874 11.29121 -0.98782 32.22124 2.46261 -12.57413 -20.61524 -8.11899 -4.96402 -3.3585 34.23514 8.36839 3.25909 -26.69376 -9.52211 5.01101 3.47221
-0.00112 -0.00068 -0.00777 -172.75172 -29.53592 -0.99883 42.53054 1.54538 -4.85999 -12.08037 -1.77763 -0.45516 -26.55969 -15.60004 6.40175 38.87234 93.06153 5.99688 0.93158 -30.75016 17.48194 -6.87277 42.64203 -99.53607 11.32623 -0.96359 31.86871 2.54542 -12.94033 -20.54474 -8.12363 -4.96572 -3.36128 33.96396 8.62537 3.73066 -26.61952 -9.45116 4.9318 3.42538
-0.00081 -0.00071 -0.00891 -172.39443 -29.27249 -0.97748 42.24689 1.43673 -4.78455 -12.14397 -1.71173 -0.46142 -26.09062 -15.65753 6.58081 38.58525 93.02237 6.0691 0.90381 -30.66345 17.65919 -6.71554 43.13041 -99.56466 11.35574 -0.94004 31.57914 2.62394 -13.27904 -20.48852 -8.12867 -4.96962 -3.36464 33.75496 8.84603 4.07603 -26.55902 -9.39332 4.86402 3.38568
-0.0006 -0.00077 -0.01004 -172.02996 -28.97163 -0.96009 41.94623 1.32324 -4.75826 -12.2108 -1.66652 -0.46833 -25.74095 -15.73369 6.7679 38.33818 93.1455 6.20448 0.89366 -30.60175 17.82627 -6.5389 43.63885 -99.58272 11.37717 -0.91199 31.23434 2.71088 -13.60025 -20.4243 -8.13608 -4.97572 -3.36949 33.48824 9.09893 4.53114 -26.49346 -9.31855 4.78566 3.33938
-0.00018 -0.00079 -0.01123 -171.67391 -28.72523 -0.93399 41.65205 1.21737 -4.62967 -12.27066 -1.57025 -0.47428 -25.09797 -15.76024 6.91681 37.99193 93.25076 6.2973 0.89671 -30.48536 18.01565 -6.39808 44.11678 -99.62543 11.41515 -0.89148 30.97825 2.78141 -13.97232 -20.36993 -8.13843 -4.97611 -3.37093 33.31691 9.30023 4.8144 -26.43243 -9.27385 4.72416 3.30358
0.00076 -0.0007 -0.01258 -171.36143 -28.65005 -0.8869 41.41421 1.13167 -4.22438 -12.32129 -1.34232 -0.47673 -23.69478 -15.65994 6.97337 37.36869 93.01571 6.19288 0.89296 -30.22892 18.27426 -6.36161 44.49967 -99.70829 11.49616 -0.88866 30.98663 2.80697 -14.47931 -20.35019 -8.12477 -4.96018 -3.36229 33.42015 9.34264 4.55095 -26.38316 -9.3187 4.71729 3.30169
0.00192 -0.00057 -0.01398 -171.0545 -28.63311 -0.83043 41.18409 1.05487 -3.71499 -12.36249 -1.0638 -0.47825 -22.00273 -15.51058 6.99379 36.65199 92.73311 6.03689 0.89752 -29.91657 18.55318 -6.36258 44.84914 -99.80557 11.5902 -0.89237 31.08906 2.81554 -15.03185 -20.34104 -8.10676 -4.93919 -3.35061 33.62555 9.33109 4.11133 -26.3406 -9.39404 4.72736 3.31036
0.00301 -0.00047 -0.01535 -170.73557 -28.59046 -0.77642 40.94292 0.97644 -3.24834 -12.40137 -0.80738 -0.48053 -20.44109 -15.38242 7.03238 35.99168 92.48192 5.9058 0.89835 -29.62469 18.81727 -6.34699 45.21365 -99.8916 11.67425 -0.89315 31.15197 2.83105 -15.55578 -20.32621 -8.09239 -4.92182 -3.3411 33.79268 9.34575 3.76757 -26.29979 -9.45406 4.72736 3.31283
0.00398 -0.00035 -0.01676 -170.45862 -28.54074 -0.73035 40.73039 0.88703 -2.79979 -12.46968 -0.5535 -0.48145 -18.87629 -15.25673 7.06016 35.26976 92.22891 5.77944 0.90511 -29.35331 19.10659 -6.32823 45.58308 -100.00258 11.77714 -0.8942 31.19622 2.85034 -16.11758 -20.31382 -8.07047 -4.89843 -3.32798 33.92019 9.35692 3.36766 -26.23802 -9.51942 4.73662 3.32079
0.00526 -0.00024 -0.0181 -170.0925 -28.52157 -0.6651 40.46066 0.8232 -2.29041 -12.47263 -0.28288 -0.48495 -17.25213 -15.11583 7.10412 34.65533 91.95417 5.62724 0.89931 -29.026 19.34638 -6.32576 45.93049 -100.06257 11.84284 -0.89602 31.3048 2.85726 -16.60799 -20.2996 -8.06383 -4.88675 -3.3219 34.15781 9.35989 3.03605 -26.22155 -9.58139 4.73096 3.32
0.0073 -0.00014 -0.01921 -169.50733 -28.56607 -0.5528 40.03915 0.82419 -1.62421 -12.31252 0.0232 -0.49586 -15.53365 -14.93606 7.1921 34.35648 91.62293 5.41143 0.85569 -28.55976 19.45966 -6.35654 46.25163 -99.9845 11.80795 -0.8991 31.55331 2.83745 -16.91054 -20.27447 -8.09563 -4.90601 -3.33414 34.65749 9.36975 2.97322 -26.3312 -9.62433 4.67904 3.29189
0.00966 -3e-05 -0.02023 -168.8272 -28.64088 -0.42091 39.5592 0.85137 -0.90302 -12.08412 0.34415 -0.50938 -13.76638 -14.74478 7.30105 34.16955 91.26996 5.17124 0.79912 -28.03953 19.51989 -6.40385 46.54628 -99.85314 11.73424 -0.90254 31.86631 2.80505 -17.13589 -20.24788 -8.14377 -4.93768 -3.35386 35.26775 9.37039 2.97923 -26.48576 -9.66319 4.61154 3.25463
0.0119 7e-05 -0.02129 -168.1717 -28.70661 -0.2956 39.10081 0.86901 -0.21633 -11.87711 0.6568 -0.52167 -12.02335 -14.56446 7.4053 33.93521 90.92296 4.94301 0.74746 -27.542 19.59394 -6.44434 46.83587 -99.741 11.67441 -0.9053 32.16032 2.77635 -17.3823 -20.22422 -8.18775 -4.96548 -3.37142 35.83952 9.36356 2.92579 -26.61826 -9.70561 4.55219 3.22216
0.01405 0.00017 -0.02237 -167.59379 -28.75485 -0.17961 38.66226 0.87692 0.51419 -11.71055 0.97686 -0.53415 -10.26212 -14.3572 7.48244 33.68553 90.5802 4.70708 0.69758 -27.04752 19.71062 -6.47979 47.19772 -99.64916 11.63012 -0.91047 32.41516 2.75597 -17.68787 -20.19129 -8.21823 -4.98588 -3.38382 36.36671 9.40196 2.97701 -26.7583 -9.7424 4.48996 3.18794
